# xmcd CD database file
#
# Track frame offsets:
#	150
#	19850
#	46210
#	68765
#	88428
#	109890
#	128059
#	145665
#	168223
#	186110
#	206618
#	226420
#	247617
#	271094
#	287632
#	309714
#	334184
#
# Disc length: 4692 seconds
#
# Revision: 1
# Processed by: cddbd v1.4PL0 Copyright (c) Steve Scherf et al.
# Submitted via: CDex 1.40Release
#
DISCID=ed125211
DTITLE=Various Artist - Ngu Long Cong Chua
DYEAR=2003
DGENRE=World
TTITLE0=Tinh Khong Hoi Tiec
TTITLE1=Tinh Le Bong
TTITLE2=Tra Lai Anh Tinh Dau
TTITLE3=Dung Hoi Vi Sau
TTITLE4=Dau Yeu Oi
TTITLE5=Tinh Dau
TTITLE6=Canh Chim Lac Loai
TTITLE7=Tham Yeu
TTITLE8=Trai Tim Khong Loi
TTITLE9=Ngay Do Ta Yeu Nhau
TTITLE10=Sac Mau Tinh Yeu
TTITLE11=Doi Long
TTITLE12=Ngay Tho Tinh Dau
TTITLE13=Tinh Dam Say
TTITLE14=Vet Tinh Buon
TTITLE15=Hoa Xuong Rong
TTITLE16=Tuoi Mong Xu Dong
EXTD=album: Ngu Long Cong Chua\nArtists: Various\ngenre: Vietnamese (various) YEAR: 2003
EXTT0=
EXTT1=
EXTT2=
EXTT3=
EXTT4=
EXTT5=
EXTT6=
EXTT7=
EXTT8=
EXTT9=
EXTT10=
EXTT11=
EXTT12=
EXTT13=
EXTT14=
EXTT15=
EXTT16=
PLAYORDER=
